<svg xmlns="http://www.w3.org/2000/svg" width="1600" height="800" viewBox="0 0 1600 800">
  <defs>
    <linearGradient id="bbg-celestial-academy" x1="0" y1="0" x2="1" y2="1">
      <stop offset="0%" stop-color="#1e3a8a"/>
      <stop offset="100%" stop-color="#0a0f1f"/>
    </linearGradient>
    <radialGradient id="bglow-celestial-academy" cx="70%" cy="50%" r="60%">
      <stop offset="0%" stop-color="#38bdf8" stop-opacity="0.4"/>
      <stop offset="100%" stop-color="#38bdf8" stop-opacity="0"/>
    </radialGradient>
    <linearGradient id="bfade-celestial-academy" x1="0" y1="0" x2="1" y2="0">
      <stop offset="0%" stop-color="#0a0f1f" stop-opacity="1"/>
      <stop offset="50%" stop-color="#0a0f1f" stop-opacity="0.5"/>
      <stop offset="100%" stop-color="#0a0f1f" stop-opacity="0"/>
    </linearGradient>
  </defs>
  <rect width="1600" height="800" fill="url(#bbg-celestial-academy)"/>
  <rect width="1600" height="800" fill="url(#bglow-celestial-academy)"/>
  <g transform="translate(900 0) scale(1.5)">
      <g opacity="0.85">
        <g transform="translate(60,80)"><path d="M 0 -12 L 3 -3 L 12 0 L 3 3 L 0 12 L -3 3 L -12 0 L -3 -3 Z" fill="#38bdf8" opacity="0.3"/></g><g transform="translate(100,120)"><path d="M 0 -12 L 3 -3 L 12 0 L 3 3 L 0 12 L -3 3 L -12 0 L -3 -3 Z" fill="#38bdf8" opacity="0.4"/></g><g transform="translate(140,160)"><path d="M 0 -12 L 3 -3 L 12 0 L 3 3 L 0 12 L -3 3 L -12 0 L -3 -3 Z" fill="#38bdf8" opacity="0.5"/></g><g transform="translate(180,200)"><path d="M 0 -12 L 3 -3 L 12 0 L 3 3 L 0 12 L -3 3 L -12 0 L -3 -3 Z" fill="#38bdf8" opacity="0.6000000000000001"/></g><g transform="translate(220,240)"><path d="M 0 -12 L 3 -3 L 12 0 L 3 3 L 0 12 L -3 3 L -12 0 L -3 -3 Z" fill="#38bdf8" opacity="0.7"/></g><g transform="translate(260,280)"><path d="M 0 -12 L 3 -3 L 12 0 L 3 3 L 0 12 L -3 3 L -12 0 L -3 -3 Z" fill="#38bdf8" opacity="0.8"/></g>
      </g></g>
  <rect width="1600" height="800" fill="url(#bfade-celestial-academy)"/>
  <g opacity="0.4">
    <circle cx="0" cy="0" r="1" fill="#38bdf8" opacity="0.5"/><circle cx="83" cy="127" r="2" fill="#38bdf8" opacity="0.5"/><circle cx="166" cy="254" r="3" fill="#38bdf8" opacity="0.5"/><circle cx="249" cy="381" r="1" fill="#38bdf8" opacity="0.5"/><circle cx="332" cy="508" r="2" fill="#38bdf8" opacity="0.5"/><circle cx="415" cy="635" r="3" fill="#38bdf8" opacity="0.5"/><circle cx="498" cy="762" r="1" fill="#38bdf8" opacity="0.5"/><circle cx="581" cy="89" r="2" fill="#38bdf8" opacity="0.5"/><circle cx="664" cy="216" r="3" fill="#38bdf8" opacity="0.5"/><circle cx="747" cy="343" r="1" fill="#38bdf8" opacity="0.5"/><circle cx="830" cy="470" r="2" fill="#38bdf8" opacity="0.5"/><circle cx="913" cy="597" r="3" fill="#38bdf8" opacity="0.5"/><circle cx="996" cy="724" r="1" fill="#38bdf8" opacity="0.5"/><circle cx="1079" cy="51" r="2" fill="#38bdf8" opacity="0.5"/><circle cx="1162" cy="178" r="3" fill="#38bdf8" opacity="0.5"/><circle cx="1245" cy="305" r="1" fill="#38bdf8" opacity="0.5"/><circle cx="1328" cy="432" r="2" fill="#38bdf8" opacity="0.5"/><circle cx="1411" cy="559" r="3" fill="#38bdf8" opacity="0.5"/><circle cx="1494" cy="686" r="1" fill="#38bdf8" opacity="0.5"/><circle cx="1577" cy="13" r="2" fill="#38bdf8" opacity="0.5"/>
  </g>
  <g transform="translate(80 320)">
    <rect x="-8" y="-30" width="6" height="44" fill="#38bdf8"/>
    <text x="10" y="-2" font-family="ui-sans-serif, system-ui, sans-serif" font-size="16" font-weight="700" fill="#38bdf8" letter-spacing="4">TV SERIES</text>
    <text x="0" y="60" font-family="ui-sans-serif, system-ui, sans-serif" font-size="72" font-weight="900" fill="#ffffff">CELESTIAL ACADEMY</text>
    <text x="0" y="100" font-family="ui-sans-serif, system-ui, sans-serif" font-size="28" font-weight="400" fill="#38bdf8" opacity="0.9">星の学園</text>
  </g>
</svg>