<svg xmlns="http://www.w3.org/2000/svg" width="600" height="900" viewBox="0 0 600 900">
  <defs>
    <linearGradient id="bg-neon-samurai" x1="0" y1="0" x2="0" y2="1">
      <stop offset="0%" stop-color="#6b21a8"/>
      <stop offset="100%" stop-color="#0a0a14"/>
    </linearGradient>
    <radialGradient id="glow-neon-samurai" cx="50%" cy="35%" r="60%">
      <stop offset="0%" stop-color="#ec4899" stop-opacity="0.35"/>
      <stop offset="100%" stop-color="#ec4899" stop-opacity="0"/>
    </radialGradient>
    <linearGradient id="fade-neon-samurai" x1="0" y1="0" x2="0" y2="1">
      <stop offset="0%" stop-color="#0a0a14" stop-opacity="0"/>
      <stop offset="60%" stop-color="#0a0a14" stop-opacity="0.6"/>
      <stop offset="100%" stop-color="#0a0a14" stop-opacity="1"/>
    </linearGradient>
    <filter id="blur-neon-samurai"><feGaussianBlur stdDeviation="3"/></filter>
  </defs>
  <rect width="600" height="900" fill="url(#bg-neon-samurai)"/>
  <rect width="600" height="900" fill="url(#glow-neon-samurai)"/>
  <g transform="translate(150 0)">
      <g opacity="0.9">
        <rect x="40" y="200" width="220" height="3" fill="#ec4899" opacity="0.5"/>
        <rect x="60" y="240" width="180" height="3" fill="#ec4899" opacity="0.4"/>
        <rect x="80" y="280" width="140" height="3" fill="#ec4899" opacity="0.3"/>
        <circle cx="150" cy="160" r="50" fill="none" stroke="#ec4899" stroke-width="2" opacity="0.6"/>
      </g></g>
  <g opacity="0.5">
    <circle cx="0" cy="0" r="1" fill="#ec4899" opacity="0.4"/><circle cx="73" cy="113" r="2" fill="#ec4899" opacity="0.4"/><circle cx="146" cy="226" r="3" fill="#ec4899" opacity="0.4"/><circle cx="219" cy="339" r="1" fill="#ec4899" opacity="0.4"/><circle cx="292" cy="452" r="2" fill="#ec4899" opacity="0.4"/><circle cx="365" cy="565" r="3" fill="#ec4899" opacity="0.4"/><circle cx="438" cy="678" r="1" fill="#ec4899" opacity="0.4"/><circle cx="511" cy="791" r="2" fill="#ec4899" opacity="0.4"/>
  </g>
  <rect width="600" height="900" fill="url(#fade-neon-samurai)"/>
  <g transform="translate(40 640)">
    <rect x="-8" y="-30" width="4" height="40" fill="#ec4899"/>
    <text x="6" y="-4" font-family="ui-sans-serif, system-ui, sans-serif" font-size="13" font-weight="700" fill="#ec4899" letter-spacing="3">TV</text>
    <text x="0" y="40" font-family="ui-sans-serif, system-ui, sans-serif" font-size="38" font-weight="800" fill="#ffffff">NEON SAMURAI</text>
    
    <text x="0" y="78" font-family="ui-sans-serif, system-ui, sans-serif" font-size="18" font-weight="400" fill="#ec4899" opacity="0.9">ネオン侍</text>
    <text x="0" y="108" font-family="ui-sans-serif, system-ui, sans-serif" font-size="13" font-weight="400" fill="#cbd5e1" opacity="0.7" letter-spacing="1">ORIGINAL ANIME SERIES</text>
  </g>
  <rect x="0" y="0" width="600" height="900" fill="none" stroke="#ec4899" stroke-width="1" opacity="0.15"/>
</svg>