<svg xmlns="http://www.w3.org/2000/svg" width="600" height="900" viewBox="0 0 600 900">
  <defs>
    <linearGradient id="bg-iron-blood-orphan" x1="0" y1="0" x2="0" y2="1">
      <stop offset="0%" stop-color="#7f1d1d"/>
      <stop offset="100%" stop-color="#140505"/>
    </linearGradient>
    <radialGradient id="glow-iron-blood-orphan" cx="50%" cy="35%" r="60%">
      <stop offset="0%" stop-color="#ef4444" stop-opacity="0.35"/>
      <stop offset="100%" stop-color="#ef4444" stop-opacity="0"/>
    </radialGradient>
    <linearGradient id="fade-iron-blood-orphan" x1="0" y1="0" x2="0" y2="1">
      <stop offset="0%" stop-color="#140505" stop-opacity="0"/>
      <stop offset="60%" stop-color="#140505" stop-opacity="0.6"/>
      <stop offset="100%" stop-color="#140505" stop-opacity="1"/>
    </linearGradient>
    <filter id="blur-iron-blood-orphan"><feGaussianBlur stdDeviation="3"/></filter>
  </defs>
  <rect width="600" height="900" fill="url(#bg-iron-blood-orphan)"/>
  <rect width="600" height="900" fill="url(#glow-iron-blood-orphan)"/>
  <g transform="translate(150 0)">
      <g opacity="0.9">
        <rect x="110" y="180" width="80" height="120" fill="#ef4444" opacity="0.25"/>
        <rect x="100" y="200" width="100" height="20" fill="#ef4444" opacity="0.4"/>
        <rect x="100" y="260" width="100" height="20" fill="#ef4444" opacity="0.4"/>
        <circle cx="130" cy="220" r="8" fill="#ef4444"/>
        <circle cx="170" cy="220" r="8" fill="#ef4444"/>
      </g></g>
  <g opacity="0.5">
    <circle cx="0" cy="0" r="1" fill="#ef4444" opacity="0.4"/><circle cx="73" cy="113" r="2" fill="#ef4444" opacity="0.4"/><circle cx="146" cy="226" r="3" fill="#ef4444" opacity="0.4"/><circle cx="219" cy="339" r="1" fill="#ef4444" opacity="0.4"/><circle cx="292" cy="452" r="2" fill="#ef4444" opacity="0.4"/><circle cx="365" cy="565" r="3" fill="#ef4444" opacity="0.4"/><circle cx="438" cy="678" r="1" fill="#ef4444" opacity="0.4"/><circle cx="511" cy="791" r="2" fill="#ef4444" opacity="0.4"/>
  </g>
  <rect width="600" height="900" fill="url(#fade-iron-blood-orphan)"/>
  <g transform="translate(40 640)">
    <rect x="-8" y="-30" width="4" height="40" fill="#ef4444"/>
    <text x="6" y="-4" font-family="ui-sans-serif, system-ui, sans-serif" font-size="13" font-weight="700" fill="#ef4444" letter-spacing="3">TV</text>
    <text x="0" y="40" font-family="ui-sans-serif, system-ui, sans-serif" font-size="38" font-weight="800" fill="#ffffff">IRON BLOOD ORPHAN</text>
    
    <text x="0" y="78" font-family="ui-sans-serif, system-ui, sans-serif" font-size="18" font-weight="400" fill="#ef4444" opacity="0.9">鉄血の孤児</text>
    <text x="0" y="108" font-family="ui-sans-serif, system-ui, sans-serif" font-size="13" font-weight="400" fill="#cbd5e1" opacity="0.7" letter-spacing="1">ORIGINAL ANIME SERIES</text>
  </g>
  <rect x="0" y="0" width="600" height="900" fill="none" stroke="#ef4444" stroke-width="1" opacity="0.15"/>
</svg>